<svg version="1.1" id="clover" xmlns="http://www.w3.org/2000/svg" xmlns:xlink="http://www.w3.org/1999/xlink" viewBox="0 0 256 256" xml:space="preserve">
<linearGradient id="CLOVER" gradientUnits="userSpaceOnUse" x1="23.6635" y1="23.6635" x2="232.3365" y2="232.3365">
	<stop  offset="0" style="stop-color:#10D683"/>
	<stop  offset="0.0932" style="stop-color:#0EC87E"/>
	<stop  offset="0.3246" style="stop-color:#0BAB73"/>
	<stop  offset="0.5548" style="stop-color:#09976B"/>
	<stop  offset="0.7814" style="stop-color:#078A67"/>
	<stop  offset="1" style="stop-color:#078665"/>
</linearGradient>
<path fill="url(#CLOVER)" d="M122.978,123C122.978,123,123.028,123,122.978,123c-1.858-0.01-34.714-0.271-55.411-2.457
	c-25.255-2.658-50.339-6.98-58.744-30.155C-5.135,51.899,23.622,23.763,23.622,23.763l0,0c0,0,25.528-29.416,66.539-14.584
	c23.217,8.394,27.545,33.444,30.206,58.675C122.556,88.533,122.958,121.165,122.978,123z M123,133.022
	C123,133.022,123,132.972,123,133.022c-0.01,1.858-0.271,34.714-2.457,55.411c-2.658,25.255-6.98,50.339-30.155,58.744
	c-38.489,13.958-66.625-14.799-66.625-14.799l0,0c0,0-29.416-25.528-14.584-66.539c8.394-23.217,33.444-27.545,58.675-30.206
	C88.533,133.444,121.165,133.042,123,133.022z M133.022,133C133.022,133,132.972,133,133.022,133
	c1.858,0.01,34.714,0.271,55.411,2.457c25.255,2.658,50.339,6.98,58.744,30.155c13.958,38.489-14.799,66.625-14.799,66.625l0,0
	c0,0-25.528,29.416-66.539,14.584c-23.217-8.394-27.545-33.444-30.206-58.676C133.444,167.467,133.042,134.835,133.022,133z
	 M133,122.978C133,122.978,133,123.028,133,122.978c0.01-1.858,0.271-34.714,2.457-55.411c2.658-25.255,6.98-50.339,30.155-58.744
	c38.489-13.958,66.625,14.799,66.625,14.799l0,0c0,0,29.416,25.528,14.584,66.539c-8.394,23.217-33.444,27.545-58.676,30.206
	C167.467,122.556,134.835,122.958,133,122.978z"/>
</svg>
