<?xml version="1.0" standalone="no"?><!DOCTYPE svg PUBLIC "-//W3C//DTD SVG 1.1//EN" "http://www.w3.org/Graphics/SVG/1.1/DTD/svg11.dtd"><svg t="1636805834966" class="icon" viewBox="0 0 1024 1024" version="1.1" xmlns="http://www.w3.org/2000/svg" p-id="4041" xmlns:xlink="http://www.w3.org/1999/xlink" width="600" height="600"><defs><style type="text/css"></style></defs><path d="M717.33 272.42H539.71a41.79 41.79 0 0 0-41.66 41.66v177.61a41.29 41.29 0 0 0 2.33 13.66 41.32 41.32 0 0 0-10.9-1.47H311.87a41.79 41.79 0 0 0-41.66 41.67v177.61a41.79 41.79 0 0 0 41.66 41.66h177.61a41.78 41.78 0 0 0 41.66-41.66V545.55a41.24 41.24 0 0 0-2.32-13.66 41.29 41.29 0 0 0 10.89 1.46h177.62A41.78 41.78 0 0 0 759 491.69V314.08a41.79 41.79 0 0 0-41.67-41.66z" fill="#F7C341" p-id="4042"></path><path d="M849.38 64.22H396.17c-58.47 0-106.31 47.84-106.31 106.31v123.41H174.62c-58.47 0-106.31 47.84-106.31 106.31v453.22c0 58.47 47.84 106.31 106.31 106.31h453.21c58.47 0 106.31-47.84 106.31-106.31V730.06h115.24c58.47 0 106.31-47.84 106.31-106.31V170.53c0-58.47-47.84-106.31-106.31-106.31z m0.23 489.69A70.27 70.27 0 0 1 779.55 624H623.61v162.05a70.27 70.27 0 0 1-70.06 70.07H254.86a70.27 70.27 0 0 1-70.07-70.07V487.36a70.27 70.27 0 0 1 70.07-70.07h155.93V255.22a70.27 70.27 0 0 1 70.06-70.06h298.7a70.27 70.27 0 0 1 70.06 70.06z" fill="#85B24B" p-id="4043"></path></svg>