<?xml version="1.0" standalone="no"?><!DOCTYPE svg PUBLIC "-//W3C//DTD SVG 1.1//EN" "http://www.w3.org/Graphics/SVG/1.1/DTD/svg11.dtd"><svg t="1638500844541" class="icon" viewBox="0 0 1024 1024" version="1.1" xmlns="http://www.w3.org/2000/svg" p-id="2049" width="600" height="600" xmlns:xlink="http://www.w3.org/1999/xlink"><defs><style type="text/css"></style></defs><path d="M896.4416 358.496a19.2 19.2 0 0 0-19.2-19.2h-189.216L883.6928 106.0928c0.5568-0.672 0.7488-1.4784 1.2096-2.1888a17.088 17.088 0 0 0 2.016-3.6672c0.4416-1.248 0.5568-2.496 0.7488-3.8016 0.1536-0.9216 0.5568-1.728 0.5568-2.688 0-0.3072-0.1536-0.5376-0.192-0.8256-0.0384-1.3056-0.4032-2.496-0.7488-3.7632-0.3072-1.2096-0.48-2.4192-1.0176-3.5136-0.4032-0.9216-1.1328-1.6704-1.6896-2.5344-0.864-1.248-1.6896-2.4576-2.8032-3.4752-0.192-0.1728-0.2688-0.4032-0.4416-0.576-0.5952-0.5184-1.3824-0.6912-2.0544-1.1328a18.144 18.144 0 0 0-3.7824-2.0736c-1.2288-0.4416-2.5152-0.576-3.7824-0.768-0.9024-0.1344-1.728-0.5376-2.6688-0.5376H408.2048c-0.4032 0-0.7488 0.2112-1.152 0.2304a19.0464 19.0464 0 0 0-17.7984 9.3696l-268.8 465.5808c-0.2112 0.3456-0.192 0.7488-0.384 1.1136-0.576 1.152-0.8832 2.3616-1.2096 3.6288a18.1248 18.1248 0 0 0-0.7488 3.7056c-0.0192 0.4032-0.2304 0.7488-0.2304 1.1712 0 0.8448 0.384 1.5552 0.48 2.3616a19.1616 19.1616 0 0 0 0.768 3.7824 18.1056 18.1056 0 0 0 1.632 3.36 17.28 17.28 0 0 0 1.9584 2.88 17.6064 17.6064 0 0 0 3.0528 2.688c0.6144 0.48 1.0368 1.1328 1.728 1.536 0.3456 0.192 0.7296 0.192 1.0752 0.3456 1.1712 0.5952 2.4 0.9024 3.6672 1.2288a17.7984 17.7984 0 0 0 3.7248 0.7488c0.4032 0.0384 0.7296 0.2304 1.1328 0.2304H342.464l-92.928 346.7712a19.2 19.2 0 0 0 13.5936 23.52 18.8736 18.8736 0 0 0 18.2976-5.1456l0.1152 0.192 607.8528-570.7584c0.7488-0.6336 1.4592-1.248 2.1312-1.9968l0.9408-0.8832-0.48 0.1728a18.8736 18.8736 0 0 0 4.4544-11.8848z" fill="#73C7D1" p-id="2050"></path><path d="M334.1888 256.5056l10.752-18.7776-2.7264-18.8928-16.8 20.6976 8.7744 16.9728M266.7776 296.5376l-10.5216 17.9904 8.8512 11.904 8.4096-14.9376-6.7392-14.9568M897.92 93.728a19.2 19.2 0 0 1-19.2 19.2h-460.8a19.2 19.2 0 1 1 0-38.4h460.8a19.2 19.2 0 0 1 19.2 19.2zM906.1184 358.496a19.2 19.2 0 0 1-19.2 19.2h-230.4a19.2 19.2 0 1 1 0-38.4h230.4a19.2 19.2 0 0 1 19.2 19.2z" fill="#FFFFFF" p-id="2051"></path><path d="M891.0464 79.04a19.1616 19.1616 0 0 1 2.3616 27.0528l-222.144 264.7488a19.1424 19.1424 0 0 1-27.0336 2.3616 19.1424 19.1424 0 0 1-2.3616-27.0528L863.9744 81.4016a19.2 19.2 0 0 1 27.072-2.3616zM372.4544 540.8c10.2528 2.7456 16.3392 13.248 13.5744 23.5008l-99.3984 370.9056a19.2 19.2 0 1 1-37.0944-9.9456l99.3984-370.9056a19.2 19.2 0 0 1 23.52-13.5552z" fill="#FFFFFF" p-id="2052"></path><path d="M896.1152 372.4928l-28.2048-24.7296-30.1056 29.9328-576.1728 532.032 19.7376 34.0992L902.144 370.1504M256.256 314.528L120.4736 549.7088a19.2 19.2 0 0 0 33.2544 19.2l146.8608-254.3808H256.256zM415.5008 77.12a19.2 19.2 0 0 0-26.2272 7.0272l-88.6848 153.6h44.352l77.6064-134.4a19.2 19.2 0 0 0-7.0464-26.2272z" fill="#FFFFFF" p-id="2053"></path><path d="M317.3888 247.2704m-19.2 0a19.2 19.2 0 1 0 38.4 0 19.2 19.2 0 1 0-38.4 0Z" fill="#FFFFFF" p-id="2054"></path><path d="M282.7136 307.232m-19.2 0a19.2 19.2 0 1 0 38.4 0 19.2 19.2 0 1 0-38.4 0Z" fill="#FFFFFF" p-id="2055"></path><path d="M217.856 540.128H137.1008a19.2 19.2 0 1 0 0 38.3808H217.856v-38.3808zM367.5008 540.128H294.656v38.3808h72.8448a19.2 19.2 0 0 0 0-38.3808z" fill="#FFFFFF" p-id="2056"></path><path d="M217.856 559.3088m-19.2 0a19.2 19.2 0 1 0 38.4 0 19.2 19.2 0 1 0-38.4 0Z" fill="#FFFFFF" p-id="2057"></path><path d="M294.656 559.3088m-19.2 0a19.2 19.2 0 1 0 38.4 0 19.2 19.2 0 1 0-38.4 0Z" fill="#FFFFFF" p-id="2058"></path><path d="M271.4624 450.5984a9.6 9.6 0 0 1-16.6272-9.6l67.2-116.3904a9.6 9.6 0 1 1 16.6272 9.6l-67.2 116.3904zM370.2464 279.5072a9.6 9.6 0 1 1-16.6272-9.6l28.8-49.8816a9.6 9.6 0 0 1 16.6272 9.6l-28.8 49.8816zM425.4464 183.8912a9.6 9.6 0 1 1-16.6272-9.6l9.6-16.6272a9.6 9.6 0 0 1 16.6272 9.6l-9.6 16.6272z" fill="#FFFFFF" p-id="2059"></path></svg>